<!DOCTYPE svg PUBLIC "-//W3C//DTD SVG 20010904//EN" "http://www.w3.org/TR/2001/REC-SVG-20010904/DTD/svg10.dtd">
<svg version="1.0" xmlns="http://www.w3.org/2000/svg" width="1600px" height="428px" viewBox="0 0 16000 4280" preserveAspectRatio="xMidYMid meet">
<g id="layer101" fill="#ffffff" stroke="none">
 <path d="M7655 4004 c-284 -30 -475 -87 -640 -192 -364 -231 -529 -632 -512 -1242 3 -107 8 -204 10 -215 3 -11 8 -45 12 -75 27 -209 109 -421 234 -605 68 -100 114 -149 221 -234 106 -84 137 -102 273 -157 173 -70 275 -88 507 -88 258 -1 361 13 515 71 258 96 417 235 543 474 99 186 142 388 144 674 2 243 -11 285 -110 342 l-46 27 -789 -1 -789 -1 6 77 c25 316 143 487 391 568 68 22 104 26 240 30 260 9 438 -20 704 -112 73 -26 147 -48 165 -49 45 -4 83 18 95 56 18 57 24 218 11 308 -13 99 -41 150 -98 179 -105 53 -338 115 -554 147 -100 14 -452 26 -533 18z m606 -1711 c6 -194 -41 -347 -138 -453 -173 -189 -533 -186 -718 5 -100 103 -147 220 -170 422 l-6 52 515 1 516 0 1 -27z"/>
 <path d="M14200 4004 c-14 -2 -59 -9 -100 -15 -240 -34 -479 -118 -619 -217 -51 -36 -69 -56 -90 -101 -25 -55 -26 -61 -26 -256 0 -176 2 -205 19 -238 41 -83 94 -86 221 -9 216 130 445 212 646 231 257 24 453 -23 582 -139 102 -92 150 -282 106 -419 -15 -47 -68 -129 -105 -162 -60 -55 -245 -169 -314 -194 -125 -45 -537 -251 -643 -323 -105 -70 -244 -207 -301 -297 -54 -83 -105 -196 -128 -280 -18 -68 -21 -108 -22 -270 -1 -169 2 -200 23 -280 73 -282 266 -517 526 -639 52 -25 251 -92 295 -100 14 -2 41 -7 60 -10 19 -3 49 -8 65 -11 17 -4 104 -9 195 -12 230 -8 387 16 620 93 128 43 215 90 262 142 30 33 38 52 48 113 15 87 8 357 -10 404 -17 44 -50 75 -81 75 -15 0 -95 -34 -178 -75 -255 -126 -402 -168 -591 -168 -123 1 -200 16 -277 54 -116 59 -177 144 -196 274 -33 230 126 391 568 574 70 29 115 50 265 119 19 9 95 51 168 94 146 87 255 176 339 277 62 75 154 255 177 346 75 299 19 651 -142 893 -128 193 -344 358 -572 436 -81 27 -257 71 -330 81 -55 8 -425 15 -460 9z"/>
 <path d="M3495 3949 c-85 -13 -122 -27 -145 -56 -20 -25 -20 -38 -20 -1293 0 -1242 0 -1268 20 -1292 41 -52 167 -77 370 -72 178 4 250 18 300 60 l30 26 0 1275 0 1275 -28 28 c-18 17 -48 32 -82 40 -66 15 -361 21 -445 9z"/>
 <path d="M4575 3953 c-67 -8 -147 -37 -166 -61 -19 -24 -19 -62 -19 -1884 l0 -1860 33 -33 c52 -52 95 -60 327 -60 227 0 281 9 330 55 l30 28 0 1097 0 1097 43 -54 c23 -29 61 -78 83 -108 102 -139 279 -375 284 -380 3 -3 31 -41 63 -85 31 -44 79 -109 106 -145 28 -36 78 -103 112 -150 76 -106 117 -136 211 -157 88 -19 382 -21 474 -4 113 21 144 47 144 119 0 75 -58 161 -250 372 -43 47 -104 117 -137 155 -33 39 -78 88 -99 110 -22 22 -62 67 -89 100 -27 33 -92 106 -143 162 l-94 103 20 32 c12 18 58 90 104 160 46 70 137 210 203 313 66 102 165 254 219 338 55 84 118 181 141 217 23 36 73 112 110 170 73 112 114 199 115 241 0 42 -35 77 -98 96 -47 15 -96 18 -287 18 -255 0 -319 -11 -374 -63 -16 -15 -68 -90 -116 -167 -99 -159 -111 -177 -187 -295 -31 -47 -74 -116 -98 -155 -23 -38 -58 -95 -78 -125 -19 -30 -45 -71 -57 -90 -12 -19 -49 -76 -81 -126 -33 -50 -77 -120 -99 -155 -21 -35 -62 -100 -90 -144 l-50 -80 -5 660 c-3 363 -9 668 -13 677 -12 23 -75 46 -155 58 -63 9 -301 11 -367 3z"/>
 <path d="M10344 3951 c-79 -13 -122 -30 -144 -58 -20 -26 -20 -36 -20 -1749 0 -1009 4 -1733 9 -1747 23 -61 135 -88 361 -89 245 -1 360 28 379 97 4 17 7 804 5 1750 l-3 1719 -25 24 c-41 41 -112 54 -321 58 -104 1 -213 -1 -241 -5z"/>
 <path d="M11525 3949 c-66 -11 -115 -32 -140 -59 -20 -22 -20 -42 -20 -1709 0 -1331 3 -1693 13 -1722 7 -19 29 -51 50 -71 73 -70 33 -68 1004 -68 667 1 879 3 898 13 14 7 36 35 50 62 24 48 25 58 25 235 0 179 -1 187 -26 235 -14 28 -36 56 -50 62 -18 10 -166 13 -616 13 l-593 0 0 475 0 475 571 2 571 3 23 28 c37 42 47 90 50 237 5 206 -19 300 -82 326 -27 12 -129 14 -551 14 -284 0 -532 0 -549 0 l-33 0 0 675 c0 573 -2 680 -15 704 -17 34 -67 56 -157 71 -74 12 -351 11 -423 -1z"/>
 <path d="M636 3925 c-21 -7 -54 -28 -73 -46 -67 -66 -63 37 -63 -1740 0 -1108 3 -1624 11 -1658 12 -59 36 -93 93 -129 l41 -27 605 0 c688 0 762 4 965 52 204 48 393 154 515 290 71 80 146 234 170 354 34 166 23 396 -26 516 -41 101 -90 185 -143 244 -60 67 -175 151 -249 184 l-43 19 71 18 c87 23 181 64 252 112 69 46 199 177 243 246 42 66 92 190 111 280 53 242 6 546 -117 754 -43 72 -244 286 -270 286 -7 0 -20 6 -28 14 -36 32 -213 117 -311 150 -258 86 -372 96 -1115 95 -484 0 -607 -3 -639 -14z m1357 -583 c186 -51 305 -164 347 -328 33 -129 22 -259 -32 -377 -51 -111 -165 -200 -309 -241 -102 -29 -185 -36 -470 -38 l-284 -3 -3 508 -2 508 337 -4 c305 -4 346 -6 416 -25z m-177 -1553 c227 -42 367 -239 351 -494 -9 -148 -59 -248 -157 -316 -114 -78 -231 -99 -557 -99 l-213 0 0 460 0 460 258 0 c144 0 285 -5 318 -11z"/>
 <path d="M3555 883 c-68 -8 -147 -38 -184 -70 -65 -55 -85 -121 -86 -278 -1 -318 97 -404 445 -392 205 7 286 44 337 155 25 54 27 66 27 212 1 140 -1 160 -22 210 -13 30 -33 66 -45 79 -29 31 -109 67 -182 80 -55 10 -221 13 -290 4z"/>
 </g>

</svg>